<svg width="31" height="24" viewBox="0 0 31 24" fill="none" xmlns="http://www.w3.org/2000/svg">
<g id="&#208;&#155;&#208;&#190;&#208;&#179;&#208;&#190;&#209;&#130;&#208;&#184;&#208;&#191;">
<g id="Vector">
<path d="M24.159 17.1598C23.8284 16.765 23.1672 16.3985 22.2305 16.1165C20.2468 15.4962 18.0979 14.735 18.0979 13.3534C18.0979 13.1278 18.0979 12.8459 18.0979 12.7895V12.7613C18.0979 12.0846 18.2908 11.6335 18.401 11.4643C18.4561 11.3797 18.4836 11.3515 18.4836 11.3233C19.1173 11.1259 19.3928 10.2519 19.3101 9.71617C19.2826 9.46241 19.1724 9.32143 19.0622 9.26504C19.0622 9.09587 19.1173 8.84211 19.1173 8.64474C19.1448 8.39098 19.1999 8.10902 19.1999 7.85526C19.1999 7.85526 19.1999 7.68609 19.1999 7.6297C19.1724 7.12218 19.0622 6.67105 18.8142 6.30451C18.2357 5.17669 17.1337 4.5 15.8939 4.5C14.6541 4.5 13.5521 5.20489 12.9736 6.30451C12.7532 6.69925 12.6154 7.15038 12.5879 7.6297C12.5879 7.68609 12.5879 7.85526 12.5879 7.88346C12.5879 8.13722 12.643 8.39098 12.6705 8.67293C12.6981 8.8703 12.7256 9.12406 12.7256 9.29323C12.6154 9.37782 12.5052 9.5188 12.4777 9.74436C12.395 10.2801 12.6705 11.1541 13.3042 11.3515C13.3042 11.3515 13.3317 11.4079 13.3868 11.4643C13.497 11.6617 13.6899 12.0846 13.6899 12.7613V12.8177C13.6899 12.8741 13.6899 13.1278 13.6899 13.3816C13.6899 14.7632 11.5685 15.5244 9.55733 16.1447C8.59307 16.4267 7.95941 16.7932 7.62881 17.188C7.38086 17.4981 7.38086 17.7519 7.38086 17.8647V19.359C7.38086 19.4154 7.40841 19.5 7.54616 19.5H24.2141C24.3518 19.5 24.3518 19.359 24.3518 19.359V17.8649C24.3518 17.7145 24.4069 17.4417 24.159 17.1598Z" fill="#E0E0E0"/>
<path d="M23.7755 17.4809L23.7757 17.4808C23.5401 17.1995 22.9938 16.8685 22.0863 16.5953L22.0812 16.5938L22.0812 16.5938C21.0944 16.2851 20.0129 15.9262 19.1757 15.4565C18.3646 15.0014 17.5979 14.3374 17.5979 13.3534V13.3521V13.3507V13.3494V13.3481V13.3468V13.3454V13.3441V13.3428V13.3414V13.3401V13.3388V13.3374V13.3361V13.3348V13.3334V13.3321V13.3307V13.3294V13.3281V13.3267V13.3254V13.324V13.3227V13.3213V13.32V13.3186V13.3173V13.3159V13.3146V13.3132V13.3119V13.3105V13.3091V13.3078V13.3064V13.3051V13.3037V13.3023V13.301V13.2996V13.2983V13.2969V13.2955V13.2942V13.2928V13.2914V13.2901V13.2887V13.2873V13.286V13.2846V13.2832V13.2818V13.2805V13.2791V13.2777V13.2763V13.275V13.2736V13.2722V13.2708V13.2695V13.2681V13.2667V13.2653V13.2639V13.2626V13.2612V13.2598V13.2584V13.257V13.2557V13.2543V13.2529V13.2515V13.2501V13.2487V13.2474V13.246V13.2446V13.2432V13.2418V13.2404V13.2391V13.2377V13.2363V13.2349V13.2335V13.2321V13.2307V13.2294V13.228V13.2266V13.2252V13.2238V13.2224V13.221V13.2196V13.2183V13.2169V13.2155V13.2141V13.2127V13.2113V13.2099V13.2085V13.2072V13.2058V13.2044V13.203V13.2016V13.2002V13.1988V13.1974V13.1961V13.1947V13.1933V13.1919V13.1905V13.1891V13.1877V13.1864V13.185V13.1836V13.1822V13.1808V13.1794V13.178V13.1767V13.1753V13.1739V13.1725V13.1711V13.1697V13.1684V13.167V13.1656V13.1642V13.1628V13.1615V13.1601V13.1587V13.1573V13.156V13.1546V13.1532V13.1518V13.1505V13.1491V13.1477V13.1463V13.145V13.1436V13.1422V13.1408V13.1395V13.1381V13.1367V13.1354V13.134V13.1326V13.1313V13.1299V13.1285V13.1272V13.1258V13.1245V13.1231V13.1217V13.1204V13.119V13.1177V13.1163V13.1149V13.1136V13.1122V13.1109V13.1095V13.1082V13.1068V13.1055V13.1041V13.1028V13.1014V13.1001V13.0987V13.0974V13.0961V13.0947V13.0934V13.092V13.0907V13.0894V13.088V13.0867V13.0854V13.084V13.0827V13.0814V13.08V13.0787V13.0774V13.0761V13.0747V13.0734V13.0721V13.0708V13.0695V13.0681V13.0668V13.0655V13.0642V13.0629V13.0616V13.0603V13.059V13.0577V13.0564V13.0551V13.0538V13.0525V13.0512V13.0499V13.0486V13.0473V13.046V13.0447V13.0434V13.0421V13.0408V13.0395V13.0383V13.037V13.0357V13.0344V13.0331V13.0319V13.0306V13.0293V13.0281V13.0268V13.0255V13.0243V13.023V13.0217V13.0205V13.0192V13.018V13.0167V13.0155V13.0142V13.013V13.0117V13.0105V13.0092V13.008V13.0068V13.0055V13.0043V13.003V13.0018V13.0006V12.9994V12.9981V12.9969V12.9957V12.9945V12.9933V12.9921V12.9908V12.9896V12.9884V12.9872V12.986V12.9848V12.9836V12.9824V12.9812V12.98V12.9788V12.9777V12.9765V12.9753V12.9741V12.9729V12.9717V12.9706V12.9694V12.9682V12.9671V12.9659V12.9647V12.9636V12.9624V12.9613V12.9601V12.959V12.9578V12.9567V12.9555V12.9544V12.9532V12.9521V12.951V12.9498V12.9487V12.9476V12.9465V12.9454V12.9442V12.9431V12.942V12.9409V12.9398V12.9387V12.9376V12.9365V12.9354V12.9343V12.9332V12.9321V12.931V12.93V12.9289V12.9278V12.9267V12.9256V12.9246V12.9235V12.9225V12.9214V12.9203V12.9193V12.9182V12.9172V12.9161V12.9151V12.9141V12.913V12.912V12.911V12.9099V12.9089V12.9079V12.9069V12.9058V12.9048V12.9038V12.9028V12.9018V12.9008V12.8998V12.8988V12.8978V12.8968V12.8959V12.8949V12.8939V12.8929V12.892V12.891V12.89V12.8891V12.8881V12.8872V12.8862V12.8853V12.8843V12.8834V12.8824V12.8815V12.8806V12.8796V12.8787V12.8778V12.8769V12.876V12.875V12.8741V12.8732V12.8723V12.8714V12.8705V12.8697V12.8688V12.8679V12.867V12.8661V12.8653V12.8644V12.8635V12.8627V12.8618V12.861V12.8601V12.8593V12.8584V12.8576V12.8567V12.8559V12.8551V12.8543V12.8534V12.8526V12.8518V12.851V12.8502V12.8494V12.8486V12.8478V12.847V12.8462V12.8454V12.8447V12.8439V12.8431V12.8424V12.8416V12.8408V12.8401V12.8393V12.8386V12.8378V12.8371V12.8364V12.8356V12.8349V12.8342V12.8335V12.8328V12.8321V12.8314V12.8307V12.83V12.8293V12.8286V12.8279V12.8272V12.8265V12.8259V12.8252V12.8245V12.8239V12.8232V12.8226V12.8219V12.8213V12.8206V12.82V12.8194V12.8188V12.8181V12.8175V12.8169V12.8163V12.8157V12.8151V12.8145V12.8139V12.8133V12.8128V12.8122V12.8116V12.811V12.8105V12.8099V12.8094V12.8088V12.8083V12.8077V12.8072V12.8067V12.8062V12.8056V12.8051V12.8046V12.8041V12.8036V12.8031V12.8026V12.8021V12.8017V12.8012V12.8007V12.8002V12.7998V12.7993V12.7989V12.7984V12.798V12.7975V12.7971V12.7967V12.7962V12.7958V12.7954V12.795V12.7946V12.7942V12.7938V12.7934V12.793V12.7927V12.7923V12.7919V12.7915V12.7912V12.7908V12.7905V12.7901V12.7898V12.7895V12.7613C17.5979 11.9964 17.8144 11.4487 17.982 11.1914L17.9836 11.1924L17.982 11.1914C17.9826 11.1906 17.9831 11.1897 17.9836 11.1889V10.9554L18.3349 10.8459C18.465 10.8054 18.6044 10.6781 18.7085 10.4437C18.8123 10.2101 18.841 9.95438 18.816 9.7924L18.8143 9.7813L18.8131 9.77013C18.8087 9.7304 18.8015 9.70501 18.7962 9.69058L18.5622 9.57084V9.26504C18.5622 9.15065 18.5788 9.01992 18.5909 8.92477C18.5918 8.91726 18.5928 8.90997 18.5937 8.90292C18.6082 8.78747 18.6173 8.70648 18.6173 8.64474V8.61767L18.6202 8.59077C18.6327 8.47528 18.6467 8.37571 18.6594 8.2852C18.6816 8.12639 18.6999 7.99545 18.6999 7.85526V7.85525V7.85523V7.85522V7.85519V7.85517V7.85514V7.85511V7.85507V7.85503V7.85499V7.85494V7.85489V7.85484V7.85478V7.85471V7.85465V7.85458V7.85451V7.85443V7.85435V7.85427V7.85418V7.85409V7.85399V7.85389V7.85379V7.85369V7.85358V7.85347V7.85335V7.85323V7.85311V7.85298V7.85285V7.85272V7.85258V7.85244V7.8523V7.85215V7.852V7.85185V7.85169V7.85153V7.85137V7.85121V7.85104V7.85086V7.85069V7.85051V7.85032V7.85014V7.84995V7.84976V7.84956V7.84936V7.84916V7.84896V7.84875V7.84854V7.84832V7.8481V7.84788V7.84766V7.84743V7.8472V7.84697V7.84674V7.8465V7.84626V7.84601V7.84576V7.84551V7.84526V7.845V7.84474V7.84448V7.84422V7.84395V7.84368V7.8434V7.84313V7.84285V7.84257V7.84228V7.84199V7.8417V7.84141V7.84111V7.84081V7.84051V7.84021V7.8399V7.83959V7.83928V7.83896V7.83865V7.83833V7.838V7.83768V7.83735V7.83702V7.83669V7.83635V7.83601V7.83567V7.83533V7.83498V7.83463V7.83428V7.83393V7.83357V7.83322V7.83285V7.83249V7.83213V7.83176V7.83139V7.83101V7.83064V7.83026V7.82988V7.8295V7.82912V7.82873V7.82834V7.82795V7.82756V7.82716V7.82676V7.82636V7.82596V7.82555V7.82515V7.82474V7.82433V7.82391V7.8235V7.82308V7.82266V7.82224V7.82182V7.82139V7.82096V7.82053V7.8201V7.81967V7.81923V7.81879V7.81835V7.81791V7.81747V7.81702V7.81657V7.81612V7.81567V7.81522V7.81476V7.81431V7.81385V7.81339V7.81292V7.81246V7.81199V7.81152V7.81105V7.81058V7.81011V7.80963V7.80916V7.80868V7.8082V7.80771V7.80723V7.80675V7.80626V7.80577V7.80528V7.80479V7.80429V7.8038V7.8033V7.8028V7.8023V7.8018V7.8013V7.8008V7.80029V7.79978V7.79927V7.79876V7.79825V7.79774V7.79722V7.79671V7.79619V7.79567V7.79515V7.79463V7.79411V7.79358V7.79306V7.79253V7.792V7.79147V7.79094V7.79041V7.78987V7.78934V7.7888V7.78827V7.78773V7.78719V7.78665V7.78611V7.78556V7.78502V7.78447V7.78393V7.78338V7.78283V7.78228V7.78173V7.78118V7.78063V7.78007V7.77952V7.77896V7.77841V7.77785V7.77729V7.77673V7.77617V7.77561V7.77505V7.77448V7.77392V7.77335V7.77279V7.77222V7.77165V7.77109V7.77052V7.76995V7.76938V7.7688V7.76823V7.76766V7.76709V7.76651V7.76594V7.76536V7.76478V7.76421V7.76363V7.76305V7.76247V7.76189V7.76131V7.76073V7.76015V7.75957V7.75898V7.7584V7.75782V7.75723V7.75665V7.75606V7.75548V7.75489V7.7543V7.75372V7.75313V7.75254V7.75195V7.75136V7.75077V7.75018V7.74959V7.749V7.74841V7.74782V7.74723V7.74664V7.74605V7.74546V7.74486V7.74427V7.74368V7.74308V7.74249V7.7419V7.7413V7.74071V7.74012V7.73952V7.73893V7.73833V7.73774V7.73715V7.73655V7.73596V7.73536V7.73477V7.73417V7.73358V7.73298V7.73239V7.73179V7.7312V7.7306V7.73001V7.72942V7.72882V7.72823V7.72763V7.72704V7.72644V7.72585V7.72526V7.72466V7.72407V7.72348V7.72288V7.72229V7.7217V7.72111V7.72052V7.71992V7.71933V7.71874V7.71815V7.71756V7.71697V7.71638V7.71579V7.7152V7.71461V7.71403V7.71344V7.71285V7.71226V7.71168V7.71109V7.71051V7.70992V7.70934V7.70875V7.70817V7.70759V7.707V7.70642V7.70584V7.70526V7.70468V7.7041V7.70352V7.70294V7.70237V7.70179V7.70121V7.70064V7.70006V7.69949V7.69891V7.69834V7.69777V7.6972V7.69663V7.69606V7.69549V7.69492V7.69436V7.69379V7.69322V7.69266V7.6921V7.69153V7.69097V7.69041V7.68985V7.68929V7.68873V7.68818V7.68762V7.68707V7.68651V7.68596V7.68541V7.68485V7.6843V7.68376V7.68321V7.68266V7.68212V7.68157V7.68103V7.68049V7.67994V7.6794V7.67887V7.67833V7.67779V7.67726V7.67672V7.67619V7.67566V7.67513V7.6746V7.67407V7.67355V7.67302V7.6725V7.67198V7.67146V7.67094V7.67042V7.6699V7.66939V7.66887V7.66836V7.66785V7.66734V7.66683V7.66632V7.66582V7.66532V7.66481V7.66431V7.66381V7.66332V7.66282V7.66233V7.66183V7.66134V7.66085V7.66037V7.65988V7.6594V7.65891V7.65843V7.65795V7.65747V7.657V7.65652V7.65605V7.65558V7.65511V7.65465V7.65418V7.65372V7.65326V7.6528V7.65234V7.65188V7.65143V7.65097V7.65052V7.65008V7.64963V7.64918V7.64874V7.6483V7.64786V7.64742V7.64699V7.64656V7.64613V7.6457V7.64527V7.64485V7.64442V7.644V7.64366C18.674 7.19356 18.5772 6.84648 18.4001 6.58466L18.3831 6.55963L18.3693 6.53273C17.8748 5.56875 16.9428 5 15.8939 5C14.851 5 13.9135 5.59186 13.4161 6.53732L13.4103 6.54834L13.4101 6.54826C13.2276 6.87516 13.1128 7.24818 13.0879 7.64469V7.64486V7.64529V7.64571V7.64614V7.64658V7.64701V7.64745V7.64788V7.64832V7.64877V7.64921V7.64966V7.6501V7.65056V7.65101V7.65146V7.65192V7.65238V7.65284V7.6533V7.65376V7.65423V7.6547V7.65517V7.65564V7.65611V7.65659V7.65706V7.65754V7.65802V7.6585V7.65899V7.65947V7.65996V7.66045V7.66094V7.66144V7.66193V7.66243V7.66293V7.66342V7.66393V7.66443V7.66493V7.66544V7.66595V7.66646V7.66697V7.66748V7.668V7.66851V7.66903V7.66955V7.67007V7.67059V7.67112V7.67164V7.67217V7.6727V7.67323V7.67376V7.67429V7.67482V7.67536V7.6759V7.67643V7.67697V7.67751V7.67806V7.6786V7.67915V7.67969V7.68024V7.68079V7.68134V7.68189V7.68244V7.683V7.68355V7.68411V7.68467V7.68523V7.68579V7.68635V7.68691V7.68748V7.68804V7.68861V7.68917V7.68974V7.69031V7.69088V7.69145V7.69203V7.6926V7.69318V7.69375V7.69433V7.69491V7.69549V7.69607V7.69665V7.69723V7.69781V7.6984V7.69898V7.69957V7.70016V7.70074V7.70133V7.70192V7.70251V7.7031V7.7037V7.70429V7.70488V7.70548V7.70607V7.70667V7.70727V7.70786V7.70846V7.70906V7.70966V7.71026V7.71086V7.71147V7.71207V7.71267V7.71328V7.71388V7.71449V7.71509V7.7157V7.71631V7.71692V7.71753V7.71813V7.71874V7.71936V7.71997V7.72058V7.72119V7.7218V7.72242V7.72303V7.72364V7.72426V7.72487V7.72549V7.7261V7.72672V7.72734V7.72795V7.72857V7.72919V7.72981V7.73043V7.73105V7.73167V7.73228V7.7329V7.73352V7.73415V7.73477V7.73539V7.73601V7.73663V7.73725V7.73787V7.7385V7.73912V7.73974V7.74036V7.74099V7.74161V7.74223V7.74286V7.74348V7.7441V7.74473V7.74535V7.74598V7.7466V7.74722V7.74785V7.74847V7.7491V7.74972V7.75034V7.75097V7.75159V7.75222V7.75284V7.75346V7.75409V7.75471V7.75534V7.75596V7.75658V7.75721V7.75783V7.75845V7.75908V7.7597V7.76032V7.76094V7.76156V7.76219V7.76281V7.76343V7.76405V7.76467V7.76529V7.76591V7.76653V7.76715V7.76777V7.76839V7.76901V7.76963V7.77025V7.77086V7.77148V7.7721V7.77271V7.77333V7.77395V7.77456V7.77517V7.77579V7.7764V7.77702V7.77763V7.77824V7.77885V7.77946V7.78007V7.78068V7.78129V7.7819V7.78251V7.78312V7.78372V7.78433V7.78494V7.78554V7.78615V7.78675V7.78735V7.78796V7.78856V7.78916V7.78976V7.79036V7.79096V7.79155V7.79215V7.79275V7.79334V7.79394V7.79453V7.79513V7.79572V7.79631V7.7969V7.79749V7.79808V7.79867V7.79925V7.79984V7.80042V7.80101V7.80159V7.80217V7.80275V7.80333V7.80391V7.80449V7.80507V7.80565V7.80622V7.8068V7.80737V7.80794V7.80851V7.80908V7.80965V7.81022V7.81078V7.81135V7.81191V7.81247V7.81304V7.8136V7.81416V7.81471V7.81527V7.81583V7.81638V7.81693V7.81749V7.81804V7.81859V7.81913V7.81968V7.82023V7.82077V7.82131V7.82185V7.82239V7.82293V7.82347V7.824V7.82454V7.82507V7.8256V7.82613V7.82666V7.82719V7.82771V7.82824V7.82876V7.82928V7.8298V7.83032V7.83083V7.83135V7.83186V7.83237V7.83288V7.83339V7.8339V7.8344V7.8349V7.83541V7.83591V7.8364V7.8369V7.8374V7.83789V7.83838V7.83887V7.83936V7.83984V7.84033V7.84081V7.84129V7.84177V7.84225V7.84272V7.8432V7.84367V7.84414V7.84461V7.84507V7.84554V7.846V7.84646V7.84692V7.84737V7.84783V7.84828V7.84873V7.84918V7.84963V7.85007V7.85051V7.85095V7.85139V7.85183V7.85226V7.8527V7.85313V7.85355V7.85398V7.8544V7.85482V7.85524V7.85566V7.85608V7.85649V7.8569V7.85731V7.85772V7.85812V7.85852V7.85892V7.85932V7.85971V7.86011V7.8605V7.86088V7.86127V7.86165V7.86204V7.86241V7.86279V7.86316V7.86354V7.86391V7.86427V7.86464V7.865V7.86536V7.86572V7.86607V7.86642V7.86677V7.86712V7.86747V7.86781V7.86815V7.86848V7.86882V7.86915V7.86948V7.86981V7.87013V7.87045V7.87077V7.87109V7.8714V7.87171V7.87202V7.87233V7.87263V7.87293V7.87323V7.87352V7.87381V7.8741V7.87439V7.87467V7.87496V7.87523V7.87551V7.87578V7.87605V7.87632V7.87658V7.87684V7.8771V7.87736V7.87761V7.87786V7.87811V7.87835V7.87859V7.87883V7.87906V7.8793V7.87952V7.87975V7.87997V7.88019V7.88041V7.88062V7.88084V7.88104V7.88125V7.88145V7.88165V7.88184V7.88204V7.88222V7.88241V7.88259V7.88277V7.88295V7.88312V7.88329V7.88346C13.0879 7.97633 13.098 8.07669 13.1146 8.20217C13.1185 8.2319 13.1229 8.26405 13.1276 8.29797C13.1409 8.39389 13.1561 8.50403 13.1671 8.61388C13.1948 8.81398 13.2256 9.09069 13.2256 9.29323V9.53976L13.0301 9.68986C13.0176 9.69942 13.0069 9.71069 12.9985 9.72471C12.9907 9.73758 12.9793 9.76156 12.974 9.80498L12.973 9.81281L12.9718 9.8206C12.9468 9.98257 12.9755 10.2383 13.0793 10.4719C13.1834 10.7063 13.3228 10.8336 13.4529 10.8741L13.6588 10.9383L13.7456 11.1161L13.7909 11.1624L13.8234 11.2205C13.966 11.4759 14.1899 11.9822 14.1899 12.7613V12.8177L23.7755 17.4809ZM23.7755 17.4809L23.7835 17.49M23.7755 17.4809L23.7835 17.49M23.7835 17.49L24.159 17.1598L23.7835 17.49ZM14.1899 13.3801V13.3816V13.3801ZM14.1899 13.3801V13.3786M14.1899 13.3801V13.3786M14.1899 13.3786V13.3771M14.1899 13.3786V13.3771M14.1899 13.3771V13.3756M14.1899 13.3771V13.3756M14.1899 13.3756V13.3741M14.1899 13.3756V13.3741M14.1899 13.3741V13.3727M14.1899 13.3741V13.3727M14.1899 13.3727V13.3712M14.1899 13.3727V13.3712M14.1899 13.3712V13.3697M14.1899 13.3712V13.3697M14.1899 13.3697V13.3682M14.1899 13.3697V13.3682M14.1899 13.3682V13.3667M14.1899 13.3682V13.3667M14.1899 13.3667V13.3652M14.1899 13.3667V13.3652M14.1899 13.3652V13.3637M14.1899 13.3652V13.3637M14.1899 13.3637V13.3623M14.1899 13.3637V13.3623M14.1899 13.3623V13.3608M14.1899 13.3623V13.3608M14.1899 13.3608V13.3593M14.1899 13.3608V13.3593M14.1899 13.3593V13.3578M14.1899 13.3593V13.3578M14.1899 13.3578V13.3563M14.1899 13.3578V13.3563M14.1899 13.3563V13.3548M14.1899 13.3563V13.3548M14.1899 13.3548V13.3533M14.1899 13.3548V13.3533M14.1899 13.3533V13.3519M14.1899 13.3533V13.3519M14.1899 13.3519V13.3504M14.1899 13.3519V13.3504M14.1899 13.3504V13.3489M14.1899 13.3504V13.3489M14.1899 13.3489V13.3474M14.1899 13.3489V13.3474M14.1899 13.3474V13.3459M14.1899 13.3474V13.3459M14.1899 13.3459V13.3444M14.1899 13.3459V13.3444M14.1899 13.3444V13.3429M14.1899 13.3444V13.3429M14.1899 13.3429V13.3415M14.1899 13.3429V13.3415M14.1899 13.3415V13.34M14.1899 13.3415V13.34M14.1899 13.34V13.3385M14.1899 13.34V13.3385M14.1899 13.3385V13.337M14.1899 13.3385V13.337M14.1899 13.337V13.3355M14.1899 13.337V13.3355M14.1899 13.3355V13.334M14.1899 13.3355V13.334M14.1899 13.334V13.3326M14.1899 13.334V13.3326M14.1899 13.3326V13.3311M14.1899 13.3326V13.3311M14.1899 13.3311V13.3296M14.1899 13.3311V13.3296M14.1899 13.3296V13.3281M14.1899 13.3296V13.3281M14.1899 13.3281V13.3266M14.1899 13.3281V13.3266M14.1899 13.3266V13.3252M14.1899 13.3266V13.3252M14.1899 13.3252V13.3237M14.1899 13.3252V13.3237M14.1899 13.3237V13.3222M14.1899 13.3237V13.3222M14.1899 13.3222V13.3207M14.1899 13.3222V13.3207M14.1899 13.3207V13.3192M14.1899 13.3207V13.3192M14.1899 13.3192V13.3178M14.1899 13.3192V13.3178M14.1899 13.3178V13.3163M14.1899 13.3178V13.3163M14.1899 13.3163V13.3148M14.1899 13.3163V13.3148M14.1899 13.3148V13.3133M14.1899 13.3148V13.3133M14.1899 13.3133V13.3118M14.1899 13.3133V13.3118M14.1899 13.3118V13.3104M14.1899 13.3118V13.3104M14.1899 13.3104V13.3089M14.1899 13.3104V13.3089M14.1899 13.3089V13.3074M14.1899 13.3089V13.3074M14.1899 13.3074V13.3059M14.1899 13.3074V13.3059M14.1899 13.3059V13.3045M14.1899 13.3059V13.3045M14.1899 13.3045V13.303M14.1899 13.3045V13.303M14.1899 13.303V13.3015M14.1899 13.303V13.3015M14.1899 13.3015V13.3M14.1899 13.3015V13.3M14.1899 13.3V13.2986M14.1899 13.3V13.2986M14.1899 13.2986V13.2971M14.1899 13.2986V13.2971M14.1899 13.2971V13.2956M14.1899 13.2971V13.2956M14.1899 13.2956V13.2942M14.1899 13.2956V13.2942M14.1899 13.2942V13.2927M14.1899 13.2942V13.2927M14.1899 13.2927V13.2912M14.1899 13.2927V13.2912M14.1899 13.2912V13.2897M14.1899 13.2912V13.2897M14.1899 13.2897V13.2883M14.1899 13.2897V13.2883M14.1899 13.2883V13.2868M14.1899 13.2883V13.2868M14.1899 13.2868V13.2853M14.1899 13.2868V13.2853M14.1899 13.2853V13.2839M14.1899 13.2853V13.2839M14.1899 13.2839V13.2824M14.1899 13.2839V13.2824M14.1899 13.2824V13.2809M14.1899 13.2824V13.2809M14.1899 13.2809V13.2795M14.1899 13.2809V13.2795M14.1899 13.2795V13.278M14.1899 13.2795V13.278M14.1899 13.278V13.2765M14.1899 13.278V13.2765M14.1899 13.2765V13.2751M14.1899 13.2765V13.2751M14.1899 13.2751V13.2736M14.1899 13.2751V13.2736M14.1899 13.2736V13.2721M14.1899 13.2736V13.2721M14.1899 13.2721V13.2707M14.1899 13.2721V13.2707M14.1899 13.2707V13.2692M14.1899 13.2707V13.2692M14.1899 13.2692V13.2678M14.1899 13.2692V13.2678M14.1899 13.2678V13.2663M14.1899 13.2678V13.2663M14.1899 13.2663V13.2648M14.1899 13.2663V13.2648M14.1899 13.2648V13.2634M14.1899 13.2648V13.2634M14.1899 13.2634V13.2619M14.1899 13.2634V13.2619M14.1899 13.2619V13.2605M14.1899 13.2619V13.2605M14.1899 13.2605V13.259M14.1899 13.2605V13.259M14.1899 13.259V13.2576M14.1899 13.259V13.2576M14.1899 13.2576V13.2561M14.1899 13.2576V13.2561M14.1899 13.2561V13.2546M14.1899 13.2561V13.2546M14.1899 13.2546V13.2532M14.1899 13.2546V13.2532M14.1899 13.2532V13.2517M14.1899 13.2532V13.2517M14.1899 13.2517V13.2503M14.1899 13.2517V13.2503M14.1899 13.2503V13.2488M14.1899 13.2503V13.2488M14.1899 13.2488V13.2474M14.1899 13.2488V13.2474M14.1899 13.2474V13.2459M14.1899 13.2474V13.2459M14.1899 13.2459V13.2445M14.1899 13.2459V13.2445M14.1899 13.2445V13.243M14.1899 13.2445V13.243M14.1899 13.243V13.2416M14.1899 13.243V13.2416M14.1899 13.2416V13.2401M14.1899 13.2416V13.2401M14.1899 13.2401V13.2387M14.1899 13.2401V13.2387M14.1899 13.2387V13.2372M14.1899 13.2387V13.2372M14.1899 13.2372V13.2358M14.1899 13.2372V13.2358M14.1899 13.2358V13.2344M14.1899 13.2358V13.2344M14.1899 13.2344V13.2329M14.1899 13.2344V13.2329M14.1899 13.2329V13.2315M14.1899 13.2329V13.2315M14.1899 13.2315V13.23M14.1899 13.2315V13.23M14.1899 13.23V13.2286M14.1899 13.23V13.2286M14.1899 13.2286V13.2272M14.1899 13.2286V13.2272M14.1899 13.2272V13.2257M14.1899 13.2272V13.2257M14.1899 13.2257V13.2243M14.1899 13.2257V13.2243M14.1899 13.2243V13.2228M14.1899 13.2243V13.2228M14.1899 13.2228V13.2214M14.1899 13.2228V13.2214M14.1899 13.2214V13.22M14.1899 13.2214V13.22M14.1899 13.22V13.2185M14.1899 13.22V13.2185M14.1899 13.2185V13.2171M14.1899 13.2185V13.2171M14.1899 13.2171V13.2157M14.1899 13.2171V13.2157M14.1899 13.2157V13.2143M14.1899 13.2157V13.2143M14.1899 13.2143V13.2128M14.1899 13.2143V13.2128M14.1899 13.2128V13.2114M14.1899 13.2128V13.2114M14.1899 13.2114V13.21M14.1899 13.2114V13.21M14.1899 13.21V13.2085M14.1899 13.21V13.2085M14.1899 13.2085V13.2071M14.1899 13.2085V13.2071M14.1899 13.2071V13.2057M14.1899 13.2071V13.2057M14.1899 13.2057V13.2043M14.1899 13.2057V13.2043M14.1899 13.2043V13.2029M14.1899 13.2043V13.2029M14.1899 13.2029V13.2014M14.1899 13.2029V13.2014M14.1899 13.2014V13.2M14.1899 13.2014V13.2M14.1899 13.2V13.1986M14.1899 13.2V13.1986M14.1899 13.1986V13.1972M14.1899 13.1986V13.1972M14.1899 13.1972V13.1958M14.1899 13.1972V13.1958M14.1899 13.1958V13.1943M14.1899 13.1958V13.1943M14.1899 13.1943V13.1929M14.1899 13.1943V13.1929M14.1899 13.1929V13.1915M14.1899 13.1929V13.1915M14.1899 13.1915V13.1901M14.1899 13.1915V13.1901M14.1899 13.1901V13.1887M14.1899 13.1901V13.1887M14.1899 13.1887V13.1873M14.1899 13.1887V13.1873M14.1899 13.1873V13.1859M14.1899 13.1873V13.1859M14.1899 13.1859V13.1845M14.1899 13.1859V13.1845M14.1899 13.1845V13.1831M14.1899 13.1845V13.1831M14.1899 13.1831V13.1817M14.1899 13.1831V13.1817M14.1899 13.1817V13.1803M14.1899 13.1817V13.1803M14.1899 13.1803V13.1789M14.1899 13.1803V13.1789M14.1899 13.1789V13.1775M14.1899 13.1789V13.1775M14.1899 13.1775V13.1761M14.1899 13.1775V13.1761M14.1899 13.1761V13.1747M14.1899 13.1761V13.1747M14.1899 13.1747V13.1733M14.1899 13.1747V13.1733M14.1899 13.1733V13.1719M14.1899 13.1733V13.1719M14.1899 13.1719V13.1705M14.1899 13.1719V13.1705M14.1899 13.1705V13.1691M14.1899 13.1705V13.1691M14.1899 13.1691V13.1677M14.1899 13.1691V13.1677M14.1899 13.1677V13.1663M14.1899 13.1677V13.1663M14.1899 13.1663V13.1649M14.1899 13.1663V13.1649M14.1899 13.1649V13.1635M14.1899 13.1649V13.1635M14.1899 13.1635V13.1621M14.1899 13.1635V13.1621M14.1899 13.1621V13.1607M14.1899 13.1621V13.1607M14.1899 13.1607V13.1594M14.1899 13.1607V13.1594M14.1899 13.1594V13.158M14.1899 13.1594V13.158M14.1899 13.158V13.1566M14.1899 13.158V13.1566M14.1899 13.1566V13.1552M14.1899 13.1566V13.1552M14.1899 13.1552V13.1538M14.1899 13.1552V13.1538M14.1899 13.1538V13.1525M14.1899 13.1538V13.1525M14.1899 13.1525V13.1511M14.1899 13.1525V13.1511M14.1899 13.1511V13.1497M14.1899 13.1511V13.1497M14.1899 13.1497V13.1483M14.1899 13.1497V13.1483M14.1899 13.1483V13.147M14.1899 13.1483V13.147M14.1899 13.147V13.1456M14.1899 13.147V13.1456M14.1899 13.1456V13.1442M14.1899 13.1456V13.1442M14.1899 13.1442V13.1429M14.1899 13.1442V13.1429M14.1899 13.1429V13.1415M14.1899 13.1429V13.1415M14.1899 13.1415V13.1401M14.1899 13.1415V13.1401M14.1899 13.1401V13.1388M14.1899 13.1401V13.1388M14.1899 13.1388V13.1374M14.1899 13.1388V13.1374M14.1899 13.1374V13.136M14.1899 13.1374V13.136M14.1899 13.136V13.1347M14.1899 13.136V13.1347M14.1899 13.1347V13.1333M14.1899 13.1347V13.1333M14.1899 13.1333V13.132M14.1899 13.1333V13.132M14.1899 13.132V13.1306M14.1899 13.132V13.1306M14.1899 13.1306V13.1293M14.1899 13.1306V13.1293M14.1899 13.1293V13.1279M14.1899 13.1293V13.1279M14.1899 13.1279V13.1266M14.1899 13.1279V13.1266M14.1899 13.1266V13.1252M14.1899 13.1266V13.1252M14.1899 13.1252V13.1239M14.1899 13.1252V13.1239M14.1899 13.1239V13.1225M14.1899 13.1239V13.1225M14.1899 13.1225V13.1212M14.1899 13.1225V13.1212M14.1899 13.1212V13.1198M14.1899 13.1212V13.1198M14.1899 13.1198V13.1185M14.1899 13.1198V13.1185M14.1899 13.1185V13.1172M14.1899 13.1185V13.1172M14.1899 13.1172V13.1158M14.1899 13.1172V13.1158M14.1899 13.1158V13.1145M14.1899 13.1158V13.1145M14.1899 13.1145V13.1131M14.1899 13.1145V13.1131M14.1899 13.1131V13.1118M14.1899 13.1131V13.1118M14.1899 13.1118V13.1105M14.1899 13.1118V13.1105M14.1899 13.1105V13.1092M14.1899 13.1105V13.1092M14.1899 13.1092V13.1078M14.1899 13.1092V13.1078M14.1899 13.1078V13.1065M14.1899 13.1078V13.1065M14.1899 13.1065V13.1052M14.1899 13.1065V13.1052M14.1899 13.1052V13.1039M14.1899 13.1052V13.1039M14.1899 13.1039V13.1025M14.1899 13.1039V13.1025M14.1899 13.1025V13.1012M14.1899 13.1025V13.1012M14.1899 13.1012V13.0999M14.1899 13.1012V13.0999M14.1899 13.0999V13.0986M14.1899 13.0999V13.0986M14.1899 13.0986V13.0973M14.1899 13.0986V13.0973M14.1899 13.0973V13.096M14.1899 13.0973V13.096M14.1899 13.096V13.0947M14.1899 13.096V13.0947M14.1899 13.0947V13.0934M14.1899 13.0947V13.0934M14.1899 13.0934V13.092M14.1899 13.0934V13.092M14.1899 13.092V13.0907M14.1899 13.092V13.0907M14.1899 13.0907V13.0894M14.1899 13.0907V13.0894M14.1899 13.0894V13.0881M14.1899 13.0894V13.0881M14.1899 13.0881V13.0868M14.1899 13.0881V13.0868M14.1899 13.0868V13.0855M14.1899 13.0868V13.0855M14.1899 13.0855V13.0842M14.1899 13.0855V13.0842M14.1899 13.0842V13.083M14.1899 13.0842V13.083M14.1899 13.083V13.0817M14.1899 13.083V13.0817M14.1899 13.0817V13.0804M14.1899 13.0817V13.0804M14.1899 13.0804V13.0791M14.1899 13.0804V13.0791M14.1899 13.0791V13.0778M14.1899 13.0791V13.0778M14.1899 13.0778V13.0765M14.1899 13.0778V13.0765M14.1899 13.0765V13.0752M14.1899 13.0765V13.0752M14.1899 13.0752V13.074M14.1899 13.0752V13.074M14.1899 13.074V13.0727M14.1899 13.074V13.0727M14.1899 13.0727V13.0714M14.1899 13.0727V13.0714M14.1899 13.0714V13.0701M14.1899 13.0714V13.0701M14.1899 13.0701V13.0689M14.1899 13.0701V13.0689M14.1899 13.0689V13.0676M14.1899 13.0689V13.0676M14.1899 13.0676V13.0663M14.1899 13.0676V13.0663M14.1899 13.0663V13.065M14.1899 13.0663V13.065M14.1899 13.065V13.0638M14.1899 13.065V13.0638M14.1899 13.0638V13.0625M14.1899 13.0638V13.0625M14.1899 13.0625V13.0613M14.1899 13.0625V13.0613M14.1899 13.0613V13.06M14.1899 13.0613V13.06M14.1899 13.06V13.0587M14.1899 13.06V13.0587M14.1899 13.0587V13.0575M14.1899 13.0587V13.0575M14.1899 13.0575V13.0562M14.1899 13.0575V13.0562M14.1899 13.0562V13.055M14.1899 13.0562V13.055M14.1899 13.055V13.0537M14.1899 13.055V13.0537M14.1899 13.0537V13.0525M14.1899 13.0537V13.0525M14.1899 13.0525V13.0512M14.1899 13.0525V13.0512M14.1899 13.0512V13.05M14.1899 13.0512V13.05M14.1899 13.05V13.0488M14.1899 13.05V13.0488M14.1899 13.0488V13.0475M14.1899 13.0488V13.0475M14.1899 13.0475V13.0463M14.1899 13.0475V13.0463M14.1899 13.0463V13.0451M14.1899 13.0463V13.0451M14.1899 13.0451V13.0438M14.1899 13.0451V13.0438M14.1899 13.0438V13.0426M14.1899 13.0438V13.0426M14.1899 13.0426V13.0414M14.1899 13.0426V13.0414M14.1899 13.0414V13.0401M14.1899 13.0414V13.0401M14.1899 13.0401V13.0389M14.1899 13.0401V13.0389M14.1899 13.0389V13.0377M14.1899 13.0389V13.0377M14.1899 13.0377V13.0365M14.1899 13.0377V13.0365M14.1899 13.0365V13.0353M14.1899 13.0365V13.0353M14.1899 13.0353V13.034M14.1899 13.0353V13.034M14.1899 13.034V13.0328M14.1899 13.034V13.0328M14.1899 13.0328V13.0316M14.1899 13.0328V13.0316M14.1899 13.0316V13.0304M14.1899 13.0316V13.0304M14.1899 13.0304V13.0292M14.1899 13.0304V13.0292M14.1899 13.0292V13.028M14.1899 13.0292V13.028M14.1899 13.028V13.0268M14.1899 13.028V13.0268M14.1899 13.0268V13.0256M14.1899 13.0268V13.0256M14.1899 13.0256V13.0244M14.1899 13.0256V13.0244M14.1899 13.0244V13.0232M14.1899 13.0244V13.0232M14.1899 13.0232V13.022M14.1899 13.0232V13.022M14.1899 13.022V13.0208M14.1899 13.022V13.0208M14.1899 13.0208V13.0197M14.1899 13.0208V13.0197M14.1899 13.0197V13.0185M14.1899 13.0197V13.0185M14.1899 13.0185V13.0173M14.1899 13.0185V13.0173M14.1899 13.0173V13.0161M14.1899 13.0173V13.0161M14.1899 13.0161V13.0149M14.1899 13.0161V13.0149M14.1899 13.0149V13.0137M14.1899 13.0149V13.0137M14.1899 13.0137V13.0126M14.1899 13.0137V13.0126M14.1899 13.0126V13.0114M14.1899 13.0126V13.0114M14.1899 13.0114V13.0102M14.1899 13.0114V13.0102M14.1899 13.0102V13.0091M14.1899 13.0102V13.0091M14.1899 13.0091V13.0079M14.1899 13.0091V13.0079M14.1899 13.0079V13.0067M14.1899 13.0079V13.0067M14.1899 13.0067V13.0056M14.1899 13.0067V13.0056M14.1899 13.0056V13.0044M14.1899 13.0056V13.0044M14.1899 13.0044V13.0033M14.1899 13.0044V13.0033M14.1899 13.0033V13.0021M14.1899 13.0033V13.0021M14.1899 13.0021V13.001M14.1899 13.0021V13.001M14.1899 13.001V12.9998M14.1899 13.001V12.9998M14.1899 12.9998V12.9987M14.1899 12.9998V12.9987M14.1899 12.9987V12.9975M14.1899 12.9987V12.9975M14.1899 12.9975V12.9964M14.1899 12.9975V12.9964M14.1899 12.9964V12.9953M14.1899 12.9964V12.9953M14.1899 12.9953V12.9941M14.1899 12.9953V12.9941M14.1899 12.9941V12.993M14.1899 12.9941V12.993M14.1899 12.993V12.9919M14.1899 12.993V12.9919M14.1899 12.9919V12.9907M14.1899 12.9919V12.9907M14.1899 12.9907V12.9896M14.1899 12.9907V12.9896M14.1899 12.9896V12.9885M14.1899 12.9896V12.9885M14.1899 12.9885V12.9874M14.1899 12.9885V12.9874M14.1899 12.9874V12.9863M14.1899 12.9874V12.9863M14.1899 12.9863V12.9851M14.1899 12.9863V12.9851M14.1899 12.9851V12.984M14.1899 12.9851V12.984M14.1899 12.984V12.9829M14.1899 12.984V12.9829M14.1899 12.9829V12.9818M14.1899 12.9829V12.9818M14.1899 12.9818V12.9807M14.1899 12.9818V12.9807M14.1899 12.9807V12.9796M14.1899 12.9807V12.9796M14.1899 12.9796V12.9785M14.1899 12.9796V12.9785M14.1899 12.9785V12.9774M14.1899 12.9785V12.9774M14.1899 12.9774V12.9763M14.1899 12.9774V12.9763M14.1899 12.9763V12.9752M14.1899 12.9763V12.9752M14.1899 12.9752V12.9741M14.1899 12.9752V12.9741M14.1899 12.9741V12.973M14.1899 12.9741V12.973M14.1899 12.973V12.972M14.1899 12.973V12.972M14.1899 12.972V12.9709M14.1899 12.972V12.9709M14.1899 12.9709V12.9698M14.1899 12.9709V12.9698M14.1899 12.9698V12.9687M14.1899 12.9698V12.9687M14.1899 12.9687V12.9677M14.1899 12.9687V12.9677M14.1899 12.9677V12.9666M14.1899 12.9677V12.9666M14.1899 12.9666V12.9655M14.1899 12.9666V12.9655M14.1899 12.9655V12.9645V12.9655ZM9.69767 16.6247L9.7047 16.6225L9.55733 16.1447L9.69767 16.6247Z" stroke="#E0E0E0"/>
</g>
<g id="Vector_2">
<mask id="path-3-inside-1_11_1877" fill="white">
<path d="M2.21484 7.125C2.21484 6.91789 2.38007 6.75 2.58389 6.75C2.78771 6.75 2.95294 6.91789 2.95294 7.125V7.875C2.95294 8.08211 2.78771 8.25 2.58389 8.25C2.38007 8.25 2.21484 8.08211 2.21484 7.875V7.125Z"/>
<path d="M2.21484 9.375C2.21484 9.16789 2.38007 9 2.58389 9C2.78771 9 2.95294 9.16789 2.95294 9.375V10.125C2.95294 10.3321 2.78771 10.5 2.58389 10.5C2.38007 10.5 2.21484 10.3321 2.21484 10.125V9.375Z"/>
<path d="M2.21484 13.125C2.21484 12.9179 2.38007 12.75 2.58389 12.75C2.78771 12.75 2.95294 12.9179 2.95294 13.125V13.875C2.95294 14.0821 2.78771 14.25 2.58389 14.25C2.38007 14.25 2.21484 14.0821 2.21484 13.875V13.125Z"/>
<path d="M2.21484 15.375C2.21484 15.1679 2.38007 15 2.58389 15C2.78771 15 2.95294 15.1679 2.95294 15.375V16.125C2.95294 16.3321 2.78771 16.5 2.58389 16.5C2.38007 16.5 2.21484 16.3321 2.21484 16.125V15.375Z"/>
<path d="M6.64341 7.125C6.64341 6.91789 6.80864 6.75 7.01246 6.75C7.21628 6.75 7.38151 6.91789 7.38151 7.125V7.875C7.38151 8.08211 7.21628 8.25 7.01246 8.25C6.80864 8.25 6.64341 8.08211 6.64341 7.875V7.125Z"/>
<path d="M6.64341 9.375C6.64341 9.16789 6.80864 9 7.01246 9C7.21628 9 7.38151 9.16789 7.38151 9.375V10.125C7.38151 10.3321 7.21628 10.5 7.01246 10.5C6.80864 10.5 6.64341 10.3321 6.64341 10.125V9.375Z"/>
<path d="M6.64341 13.125C6.64341 12.9179 6.80864 12.75 7.01246 12.75C7.21628 12.75 7.38151 12.9179 7.38151 13.125V13.875C7.38151 14.0821 7.21628 14.25 7.01246 14.25C6.80864 14.25 6.64341 14.0821 6.64341 13.875V13.125Z"/>
<path d="M6.64341 15.375C6.64341 15.1679 6.80864 15 7.01246 15C7.21628 15 7.38151 15.1679 7.38151 15.375V16.125C7.38151 16.3321 7.21628 16.5 7.01246 16.5C6.80864 16.5 6.64341 16.3321 6.64341 16.125V15.375Z"/>
</mask>
<path d="M2.21484 7.125C2.21484 6.91789 2.38007 6.75 2.58389 6.75C2.78771 6.75 2.95294 6.91789 2.95294 7.125V7.875C2.95294 8.08211 2.78771 8.25 2.58389 8.25C2.38007 8.25 2.21484 8.08211 2.21484 7.875V7.125Z" fill="#E0E0E0"/>
<path d="M2.21484 9.375C2.21484 9.16789 2.38007 9 2.58389 9C2.78771 9 2.95294 9.16789 2.95294 9.375V10.125C2.95294 10.3321 2.78771 10.5 2.58389 10.5C2.38007 10.5 2.21484 10.3321 2.21484 10.125V9.375Z" fill="#E0E0E0"/>
<path d="M2.21484 13.125C2.21484 12.9179 2.38007 12.75 2.58389 12.75C2.78771 12.75 2.95294 12.9179 2.95294 13.125V13.875C2.95294 14.0821 2.78771 14.25 2.58389 14.25C2.38007 14.25 2.21484 14.0821 2.21484 13.875V13.125Z" fill="#E0E0E0"/>
<path d="M2.21484 15.375C2.21484 15.1679 2.38007 15 2.58389 15C2.78771 15 2.95294 15.1679 2.95294 15.375V16.125C2.95294 16.3321 2.78771 16.5 2.58389 16.5C2.38007 16.5 2.21484 16.3321 2.21484 16.125V15.375Z" fill="#E0E0E0"/>
<path d="M6.64341 7.125C6.64341 6.91789 6.80864 6.75 7.01246 6.75C7.21628 6.75 7.38151 6.91789 7.38151 7.125V7.875C7.38151 8.08211 7.21628 8.25 7.01246 8.25C6.80864 8.25 6.64341 8.08211 6.64341 7.875V7.125Z" fill="#E0E0E0"/>
<path d="M6.64341 9.375C6.64341 9.16789 6.80864 9 7.01246 9C7.21628 9 7.38151 9.16789 7.38151 9.375V10.125C7.38151 10.3321 7.21628 10.5 7.01246 10.5C6.80864 10.5 6.64341 10.3321 6.64341 10.125V9.375Z" fill="#E0E0E0"/>
<path d="M6.64341 13.125C6.64341 12.9179 6.80864 12.75 7.01246 12.75C7.21628 12.75 7.38151 12.9179 7.38151 13.125V13.875C7.38151 14.0821 7.21628 14.25 7.01246 14.25C6.80864 14.25 6.64341 14.0821 6.64341 13.875V13.125Z" fill="#E0E0E0"/>
<path d="M6.64341 15.375C6.64341 15.1679 6.80864 15 7.01246 15C7.21628 15 7.38151 15.1679 7.38151 15.375V16.125C7.38151 16.3321 7.21628 16.5 7.01246 16.5C6.80864 16.5 6.64341 16.3321 6.64341 16.125V15.375Z" fill="#E0E0E0"/>
<path d="M1.95294 7.125V7.875H3.95294V7.125H1.95294ZM3.21484 7.875V7.125H1.21484V7.875H3.21484ZM2.58389 7.25C2.94738 7.25 3.21484 7.54497 3.21484 7.875H1.21484C1.21484 8.61925 1.81276 9.25 2.58389 9.25V7.25ZM1.95294 7.875C1.95294 7.54497 2.2204 7.25 2.58389 7.25V9.25C3.35502 9.25 3.95294 8.61925 3.95294 7.875H1.95294ZM2.58389 7.75C2.2204 7.75 1.95294 7.45503 1.95294 7.125H3.95294C3.95294 6.38075 3.35502 5.75 2.58389 5.75V7.75ZM2.58389 5.75C1.81276 5.75 1.21484 6.38075 1.21484 7.125H3.21484C3.21484 7.45503 2.94738 7.75 2.58389 7.75V5.75ZM1.95294 9.375V10.125H3.95294V9.375H1.95294ZM3.21484 10.125V9.375H1.21484V10.125H3.21484ZM2.58389 9.5C2.94738 9.5 3.21484 9.79497 3.21484 10.125H1.21484C1.21484 10.8692 1.81276 11.5 2.58389 11.5V9.5ZM1.95294 10.125C1.95294 9.79497 2.2204 9.5 2.58389 9.5V11.5C3.35502 11.5 3.95294 10.8692 3.95294 10.125H1.95294ZM2.58389 10C2.2204 10 1.95294 9.70503 1.95294 9.375H3.95294C3.95294 8.63075 3.35502 8 2.58389 8V10ZM2.58389 8C1.81276 8 1.21484 8.63075 1.21484 9.375H3.21484C3.21484 9.70503 2.94738 10 2.58389 10V8ZM1.95294 13.125V13.875H3.95294V13.125H1.95294ZM3.21484 13.875V13.125H1.21484V13.875H3.21484ZM2.58389 13.25C2.94738 13.25 3.21484 13.545 3.21484 13.875H1.21484C1.21484 14.6192 1.81276 15.25 2.58389 15.25V13.25ZM1.95294 13.875C1.95294 13.545 2.2204 13.25 2.58389 13.25V15.25C3.35502 15.25 3.95294 14.6192 3.95294 13.875H1.95294ZM2.58389 13.75C2.2204 13.75 1.95294 13.455 1.95294 13.125H3.95294C3.95294 12.3808 3.35502 11.75 2.58389 11.75V13.75ZM2.58389 11.75C1.81276 11.75 1.21484 12.3808 1.21484 13.125H3.21484C3.21484 13.455 2.94738 13.75 2.58389 13.75V11.75ZM1.95294 15.375V16.125H3.95294V15.375H1.95294ZM3.21484 16.125V15.375H1.21484V16.125H3.21484ZM2.58389 15.5C2.94738 15.5 3.21484 15.795 3.21484 16.125H1.21484C1.21484 16.8692 1.81276 17.5 2.58389 17.5V15.5ZM1.95294 16.125C1.95294 15.795 2.2204 15.5 2.58389 15.5V17.5C3.35502 17.5 3.95294 16.8692 3.95294 16.125H1.95294ZM2.58389 16C2.2204 16 1.95294 15.705 1.95294 15.375H3.95294C3.95294 14.6308 3.35502 14 2.58389 14V16ZM2.58389 14C1.81276 14 1.21484 14.6308 1.21484 15.375H3.21484C3.21484 15.705 2.94738 16 2.58389 16V14ZM6.38151 7.125V7.875H8.38151V7.125H6.38151ZM7.64341 7.875V7.125H5.64341V7.875H7.64341ZM7.01246 7.25C7.37595 7.25 7.64341 7.54497 7.64341 7.875H5.64341C5.64341 8.61925 6.24133 9.25 7.01246 9.25V7.25ZM6.38151 7.875C6.38151 7.54497 6.64897 7.25 7.01246 7.25V9.25C7.78359 9.25 8.38151 8.61925 8.38151 7.875H6.38151ZM7.01246 7.75C6.64897 7.75 6.38151 7.45503 6.38151 7.125H8.38151C8.38151 6.38075 7.78359 5.75 7.01246 5.75V7.75ZM7.01246 5.75C6.24133 5.75 5.64341 6.38075 5.64341 7.125H7.64341C7.64341 7.45503 7.37595 7.75 7.01246 7.75V5.75ZM6.38151 9.375V10.125H8.38151V9.375H6.38151ZM7.64341 10.125V9.375H5.64341V10.125H7.64341ZM7.01246 9.5C7.37595 9.5 7.64341 9.79497 7.64341 10.125H5.64341C5.64341 10.8692 6.24133 11.5 7.01246 11.5V9.5ZM6.38151 10.125C6.38151 9.79497 6.64897 9.5 7.01246 9.5V11.5C7.78359 11.5 8.38151 10.8692 8.38151 10.125H6.38151ZM7.01246 10C6.64897 10 6.38151 9.70503 6.38151 9.375H8.38151C8.38151 8.63075 7.78359 8 7.01246 8V10ZM7.01246 8C6.24133 8 5.64341 8.63075 5.64341 9.375H7.64341C7.64341 9.70503 7.37595 10 7.01246 10V8ZM6.38151 13.125V13.875H8.38151V13.125H6.38151ZM7.64341 13.875V13.125H5.64341V13.875H7.64341ZM7.01246 13.25C7.37595 13.25 7.64341 13.545 7.64341 13.875H5.64341C5.64341 14.6192 6.24133 15.25 7.01246 15.25V13.25ZM6.38151 13.875C6.38151 13.545 6.64897 13.25 7.01246 13.25V15.25C7.78359 15.25 8.38151 14.6192 8.38151 13.875H6.38151ZM7.01246 13.75C6.64897 13.75 6.38151 13.455 6.38151 13.125H8.38151C8.38151 12.3808 7.78359 11.75 7.01246 11.75V13.75ZM7.01246 11.75C6.24133 11.75 5.64341 12.3808 5.64341 13.125H7.64341C7.64341 13.455 7.37595 13.75 7.01246 13.75V11.75ZM6.38151 15.375V16.125H8.38151V15.375H6.38151ZM7.64341 16.125V15.375H5.64341V16.125H7.64341ZM7.01246 15.5C7.37595 15.5 7.64341 15.795 7.64341 16.125H5.64341C5.64341 16.8692 6.24133 17.5 7.01246 17.5V15.5ZM6.38151 16.125C6.38151 15.795 6.64897 15.5 7.01246 15.5V17.5C7.78359 17.5 8.38151 16.8692 8.38151 16.125H6.38151ZM7.01246 16C6.64897 16 6.38151 15.705 6.38151 15.375H8.38151C8.38151 14.6308 7.78359 14 7.01246 14V16ZM7.01246 14C6.24133 14 5.64341 14.6308 5.64341 15.375H7.64341C7.64341 15.705 7.37595 16 7.01246 16V14Z" fill="#E0E0E0" mask="url(#path-3-inside-1_11_1877)"/>
</g>
<path id="Rectangle 524" d="M5.19141 7.2C5.19141 5.91552 5.19254 5.04095 5.24692 4.36463C5.29994 3.70513 5.39625 3.36614 5.51496 3.12941C5.79901 2.56293 6.24994 2.10685 6.79911 1.82252C7.02397 1.70611 7.34876 1.60961 7.99255 1.55617C8.65457 1.5012 9.51186 1.5 10.7771 1.5H20.9628C22.2281 1.5 23.0854 1.5012 23.7474 1.55617C24.3912 1.60961 24.716 1.70611 24.9408 1.82252L25.6305 0.490471L24.9408 1.82252C25.49 2.10685 25.9409 2.56293 26.225 3.1294C26.3437 3.36614 26.44 3.70513 26.493 4.36463C26.5474 5.04095 26.5485 5.91552 26.5485 7.2V16.8C26.5485 18.0845 26.5474 18.9591 26.493 19.6354C26.44 20.2949 26.3437 20.6339 26.225 20.8706C25.9409 21.4371 25.49 21.8931 24.9408 22.1775C24.716 22.2939 24.3912 22.3904 23.7474 22.4438C23.0854 22.4988 22.2281 22.5 20.9628 22.5H10.7771C9.51186 22.5 8.65457 22.4988 7.99255 22.4438C7.34876 22.3904 7.02397 22.2939 6.79911 22.1775C6.24994 21.8931 5.79901 21.4371 5.51496 20.8706C5.39625 20.6339 5.29994 20.2949 5.24692 19.6354C5.19254 18.9591 5.19141 18.0845 5.19141 16.8V7.2Z" stroke="#E0E0E0" stroke-width="3"/>
</g>
</svg>
